<svg width="41" height="34" viewBox="0 0 41 34" fill="none" xmlns="http://www.w3.org/2000/svg">
<path d="M36.2349 24.7777C33.77 22.7808 30.9029 21.2652 27.776 20.3696L21.1068 5.74276L14.4365 20.3685C11.3096 21.2641 8.44358 22.7808 5.97766 24.7766L16.6139 1.46525C17.0211 0.572733 17.9093 0 18.8874 0H23.3302C24.3084 0 25.1965 0.573762 25.6038 1.46525L36.2338 24.7766H36.2349V24.7777Z" fill="#4D06A3"/>
<path d="M39.1949 34C38.5861 34 38.0131 33.6915 37.6867 33.1733C35.3517 29.4654 31.8217 26.5945 27.648 25.1056C25.6016 24.3776 23.3997 23.9777 21.1067 23.9777C18.9733 23.9777 16.9289 24.318 15.0053 24.9545C10.3282 26.4979 6.41754 29.7626 4.03347 34H0C1.08971 31.598 2.57643 29.4119 4.38341 27.5292V27.5231C7.60548 24.1555 11.8221 21.7649 16.5524 20.8199C18.0248 20.5227 19.5504 20.3665 21.1067 20.3665C22.8154 20.3665 24.4792 20.5495 26.0794 20.9053C30.4895 21.8708 34.4308 24.101 37.5127 27.1981C37.8453 27.5323 38.1737 27.884 38.4848 28.2387C39.3074 29.1713 40.0564 30.1698 40.7215 31.2278C41.4766 32.4288 40.6059 33.9969 39.1939 33.9969V33.9989H39.1949V34Z" fill="#4D06A3"/>
<path d="M33.1201 34C32.5512 34 32.01 33.7624 31.6119 33.3532C31.5731 33.3141 31.5372 33.2761 31.4984 33.237C31.1126 32.8494 30.7033 32.4823 30.2746 32.1419V32.1358C27.7667 30.1173 24.5774 28.9132 21.1067 28.9132C17.8846 28.9132 14.904 29.9538 12.4831 31.7245C11.5766 32.3825 10.7478 33.1496 10.0121 33.9969H4.84387C7.0673 30.2407 10.5411 27.3153 14.6881 25.809C16.6905 25.081 18.8556 24.681 21.1067 24.681C23.5276 24.681 25.8431 25.1406 27.9765 25.9827C30.5089 26.977 32.7763 28.505 34.6427 30.4278C35.9319 31.7584 34.9691 33.9969 33.1232 33.9969L33.1212 33.9989L33.1201 34Z" fill="#4D06A3"/>
</svg>
