<svg width="149" height="34" viewBox="0 0 149 34" fill="none" xmlns="http://www.w3.org/2000/svg">
<path d="M49.4923 13.6284C50.6121 13.6284 51.4876 13.107 51.9187 12.2628H53.5589C53.0826 14.0067 51.4866 15.1152 49.4913 15.1152C47.0648 15.1152 45.2368 13.3826 45.2368 11.0732C45.2368 8.76372 47.0546 7.01056 49.4913 7.01056C51.4866 7.01056 53.0703 8.12107 53.5589 9.86291H51.9187C51.4989 9.00947 50.6213 8.4974 49.4923 8.4974C47.9075 8.4974 46.7877 9.54005 46.7877 11.0732C46.7877 12.6063 47.9178 13.6263 49.4923 13.6263V13.6284Z" fill="#4D06A3"/>
<path d="M58.7699 10.8747C57.1184 10.8747 56.1546 11.8187 56.1546 13.3713V14.9466H54.6027V9.39716H55.9883L56.1546 10.8398C56.6637 9.85061 57.5844 9.22955 58.7699 9.22955V10.8747Z" fill="#4D06A3"/>
<path d="M61.7947 17.1346L62.5809 14.9486H61.0403L59.0244 9.39911H60.6646L62.1395 13.4617H63.127L64.5896 9.39911H66.2185L63.4369 17.1367H61.7967L61.7947 17.1346Z" fill="#4D06A3"/>
<path d="M68.3114 9.39912L68.4561 10.1096C69.0206 9.55541 69.8305 9.23254 70.7614 9.23254C72.6007 9.23254 73.9864 10.488 73.9864 12.162C73.9864 13.836 72.612 15.1141 70.7614 15.1141C69.8417 15.1141 69.0442 14.8036 68.4787 14.2494V17.1696H66.9268V9.39912H68.3114ZM70.4278 10.5981C69.2639 10.5981 68.4766 11.2407 68.4766 12.162C68.4766 13.0833 69.2629 13.7373 70.4278 13.7373C71.5928 13.7373 72.4324 13.071 72.4324 12.162C72.4324 11.253 71.5897 10.5981 70.4278 10.5981Z" fill="#4D06A3"/>
<path d="M77.3652 12.3523C77.3652 13.2407 77.8969 13.6736 78.9613 13.6736V15.1162C76.9126 15.1162 75.8133 14.0952 75.8133 12.3513V10.8315H74.6832V10.2094L76.7442 8.15704H77.3652V9.40019H78.9613V10.8325H77.3652V12.3523Z" fill="#4D06A3"/>
<path d="M83.1501 9.23163C85.1218 9.23163 86.5526 10.4193 86.5526 12.1837C86.5526 13.9482 85.1228 15.1153 83.1501 15.1153C81.1773 15.1153 79.7599 13.8598 79.7599 12.1837C79.7599 10.5077 81.1999 9.23163 83.1501 9.23163ZM83.1501 13.6716C84.2586 13.6716 85.0007 13.0495 85.0007 12.1848C85.0007 11.32 84.2586 10.665 83.1501 10.665C82.0416 10.665 81.3108 11.2984 81.3108 12.1848C81.3108 13.0711 82.097 13.6716 83.1501 13.6716Z" fill="#4D06A3"/>
<path d="M93.4008 7.17816H95.1303L99.0409 14.9486H97.3114L96.3918 13.1183H92.1476L91.2279 14.9486H89.5107L93.4008 7.17816ZM95.6733 11.6973L94.2661 8.89945L92.8589 11.6973H95.6733Z" fill="#4D06A3"/>
<path d="M102.476 13.6942C103.319 13.6942 103.939 13.3621 104.193 12.7842H105.801C105.511 14.1939 104.193 15.1153 102.475 15.1153C100.536 15.1153 99.0848 13.8598 99.0848 12.1837C99.0848 10.5077 100.525 9.23163 102.475 9.23163C104.181 9.23163 105.49 10.1313 105.788 11.5503H104.181C103.926 10.9848 103.305 10.6403 102.475 10.6403C101.411 10.6403 100.636 11.283 100.636 12.1837C100.636 13.0845 101.422 13.6942 102.475 13.6942H102.476Z" fill="#4D06A3"/>
<path d="M112.085 14.9497L111.929 14.2176C111.365 14.7831 110.555 15.1173 109.615 15.1173C107.776 15.1173 106.39 13.8618 106.39 12.1857C106.39 10.5097 107.764 9.23364 109.615 9.23364C110.546 9.23364 111.365 9.55651 111.929 10.1334L112.085 9.40125H113.46V14.9507H112.085V14.9486V14.9497ZM109.947 13.7394C111.122 13.7394 111.908 13.106 111.908 12.1847C111.908 11.2634 111.11 10.5971 109.947 10.5971C108.784 10.5971 107.943 11.2634 107.943 12.1847C107.943 13.106 108.786 13.7394 109.947 13.7394Z" fill="#4D06A3"/>
<path d="M120.231 14.9497L120.075 14.2175C119.51 14.7831 118.701 15.1173 117.76 15.1173C115.921 15.1173 114.535 13.8618 114.535 12.1857C114.535 10.5097 115.91 9.23364 117.76 9.23364C118.68 9.23364 119.49 9.55651 120.054 10.1107V7.1792H121.606V14.9497H120.231ZM118.093 13.7384C119.267 13.7384 120.053 13.105 120.053 12.1837C120.053 11.2624 119.256 10.5961 118.093 10.5961C116.93 10.5961 116.088 11.2624 116.088 12.1837C116.088 13.105 116.931 13.7384 118.093 13.7384Z" fill="#4D06A3"/>
<path d="M124.275 12.5621C124.441 13.3611 125.15 13.8947 126.081 13.8947C126.746 13.8947 127.278 13.651 127.566 13.25H129.138C128.718 14.3831 127.531 15.1153 126.014 15.1153C124.108 15.1153 122.679 13.8598 122.679 12.1837C122.679 10.5077 124.097 9.23163 126.014 9.23163C127.93 9.23163 129.327 10.4193 129.327 12.1837C129.327 12.3051 129.327 12.4387 129.303 12.5621H124.275ZM127.733 11.7837C127.577 10.9961 126.923 10.4861 126.016 10.4861C125.108 10.4861 124.443 11.0074 124.275 11.7837H127.733Z" fill="#4D06A3"/>
<path d="M131.945 14.9496H130.393V9.40017H131.779L131.924 10.2773C132.389 9.63255 133.086 9.23462 133.907 9.23462C135.004 9.23462 135.878 9.83306 136.322 10.8099C136.754 9.84437 137.586 9.23462 138.605 9.23462C140.201 9.23462 141.342 10.5107 141.342 12.3646V14.9527H139.79V12.3646C139.79 11.3662 139.136 10.667 138.205 10.667C137.274 10.667 136.642 11.3662 136.642 12.3646V14.9527H135.09V12.3646C135.09 11.3662 134.436 10.667 133.505 10.667C132.574 10.667 131.942 11.3662 131.942 12.3646V14.9527L131.944 14.9506L131.945 14.9496Z" fill="#4D06A3"/>
<path d="M144.578 17.1346L145.365 14.9486H143.824L141.808 9.39911H143.448L144.923 13.4617H145.909L147.371 9.39911H149L146.219 17.1367H144.578V17.1346Z" fill="#4D06A3"/>
<path d="M49.0509 26.9894C46.9673 26.9894 45.3497 25.9683 45.2378 24.4362H46.8554C47.0217 25.1796 47.8962 25.6568 49.0283 25.6568C50.0804 25.6568 50.8225 25.2126 50.8225 24.6141C50.8225 22.7602 45.3363 24.647 45.3363 21.0955C45.3363 19.7299 46.7764 18.8868 48.6824 18.8868C50.6983 18.8868 52.1178 19.8523 52.2389 21.262H50.6315C50.4981 20.6615 49.679 20.1752 48.6804 20.1752C47.5954 20.1752 46.8862 20.5865 46.8862 21.1407C46.8862 22.861 52.3723 21.0636 52.3723 24.6594C52.3723 25.9478 51.1191 26.9904 49.0468 26.9904H49.0509V26.9894Z" fill="#4D06A3"/>
<path d="M56.5324 21.1056C58.5041 21.1056 59.935 22.2932 59.935 24.0577C59.935 25.8222 58.5052 26.9892 56.5324 26.9892C54.5597 26.9892 53.1422 25.7337 53.1422 24.0577C53.1422 22.3816 54.5823 21.1056 56.5324 21.1056ZM56.5324 25.5456C57.6409 25.5456 58.383 24.9235 58.383 24.0587C58.383 23.194 57.6409 22.539 56.5324 22.539C55.4239 22.539 54.6931 23.1724 54.6931 24.0587C54.6931 24.9451 55.4793 25.5456 56.5324 25.5456Z" fill="#4D06A3"/>
<path d="M65.9064 21.2712H67.4583V26.8207H66.0624L65.9177 25.8994C65.4302 26.577 64.6994 26.9862 63.8341 26.9862C62.1724 26.9862 61.0084 25.6978 61.0084 23.8562V21.2702H62.5603V23.8562C62.5603 24.8547 63.2583 25.5436 64.2447 25.5436C65.231 25.5436 65.9064 24.8444 65.9064 23.8562V21.2702V21.2712Z" fill="#4D06A3"/>
<path d="M70.4071 26.8206H68.8552V19.0502H70.4071V26.8206Z" fill="#4D06A3"/>
<path d="M74.0632 20.4835H71.3145V19.0511H78.3402V20.4835H75.6151V26.8226H74.0632V20.4835Z" fill="#4D06A3"/>
<path d="M79.65 24.4361C79.8163 25.235 80.5255 25.7687 81.4565 25.7687C82.1216 25.7687 82.6533 25.525 82.9407 25.124H84.5131C84.0933 26.2571 82.9058 26.9892 81.3887 26.9892C79.4827 26.9892 78.054 25.7337 78.054 24.0577C78.054 22.3816 79.4724 21.1056 81.3887 21.1056C83.305 21.1056 84.702 22.2932 84.702 24.0577C84.702 24.179 84.702 24.3127 84.6784 24.4361H79.65ZM83.108 23.6577C82.952 22.8701 82.2981 22.3601 81.3908 22.3601C80.4834 22.3601 79.8183 22.8814 79.65 23.6577H83.108Z" fill="#4D06A3"/>
<path d="M91.1191 26.8206L90.9631 26.0885C90.3986 26.6541 89.5887 26.9882 88.6485 26.9882C86.8092 26.9882 85.4236 25.7328 85.4236 24.0567C85.4236 22.3807 86.7979 21.1046 88.6485 21.1046C89.5795 21.1046 90.3986 21.4275 90.9631 22.0043L91.1191 21.2722H92.4935V26.8217H91.1191V26.8196V26.8206ZM88.9811 25.6104C90.1553 25.6104 90.9415 24.977 90.9415 24.0557C90.9415 23.1344 90.144 22.4681 88.9811 22.4681C87.8182 22.4681 86.9765 23.1344 86.9765 24.0557C86.9765 24.977 87.8192 25.6104 88.9811 25.6104Z" fill="#4D06A3"/>
<path d="M95.4638 26.8206H93.9119V21.2711H95.2975L95.4422 22.1482C95.9072 21.5035 96.6041 21.1056 97.4252 21.1056C98.5225 21.1056 99.397 21.704 99.8404 22.6809C100.272 21.7153 101.105 21.1056 102.123 21.1056C103.719 21.1056 104.861 22.3816 104.861 24.2356V26.8237H103.309V24.2356C103.309 23.2371 102.655 22.5379 101.724 22.5379C100.793 22.5379 100.161 23.2371 100.161 24.2356V26.8237H98.6087V24.2356C98.6087 23.2371 97.9549 22.5379 97.0239 22.5379C96.093 22.5379 95.4607 23.2371 95.4607 24.2356V26.8237L95.4628 26.8216L95.4638 26.8206Z" fill="#4D06A3"/>
<path d="M36.3481 24.7777C33.8755 22.7808 30.9995 21.2652 27.8628 20.3696L21.1727 5.74276L14.4816 20.3685C11.3449 21.2641 8.46997 22.7808 5.99634 24.7766L16.6658 1.46525C17.0743 0.572733 17.9652 0 18.9465 0H23.4031C24.3844 0 25.2753 0.573762 25.6838 1.46525L36.3471 24.7766H36.3481V24.7777Z" fill="#4D06A3"/>
<path d="M39.3174 34C38.7067 34 38.1319 33.6915 37.8045 33.1733C35.4623 29.4654 31.9212 26.5945 27.7345 25.1056C25.6817 24.3776 23.4728 23.9777 21.1727 23.9777C19.0326 23.9777 16.9819 24.318 15.0522 24.9545C10.3605 26.4979 6.43761 29.7626 4.04608 34H0C1.09312 31.598 2.58449 29.4119 4.39711 27.5292V27.5231C7.62926 24.1555 11.8591 21.7649 16.6041 20.8199C18.0811 20.5227 19.6115 20.3665 21.1727 20.3665C22.8868 20.3665 24.5557 20.5495 26.161 20.9053C30.5848 21.8708 34.5385 24.101 37.63 27.1981C37.9636 27.5323 38.2931 27.884 38.6051 28.2387C39.4303 29.1713 40.1817 30.1698 40.8488 31.2278C41.6063 32.4288 40.7328 33.9969 39.3164 33.9969V33.9989H39.3174V34Z" fill="#4D06A3"/>
<path d="M33.2237 34C32.653 34 32.11 33.7624 31.7108 33.3532C31.6718 33.3141 31.6358 33.2761 31.5968 33.237C31.2099 32.8494 30.7993 32.4823 30.3693 32.1419V32.1358C27.8535 30.1173 24.6542 28.9132 21.1727 28.9132C17.9405 28.9132 14.9506 29.9538 12.5221 31.7245C11.6127 32.3825 10.7814 33.1496 10.0434 33.9969H4.85901C7.08938 30.2407 10.574 27.3153 14.734 25.809C16.7427 25.081 18.9146 24.681 21.1727 24.681C23.6011 24.681 25.9239 25.1406 28.064 25.9827C30.6043 26.977 32.8788 28.505 34.751 30.4278C36.0442 31.7584 35.0784 33.9969 33.2268 33.9969L33.2247 33.9989L33.2237 34Z" fill="#4D06A3"/>
</svg>
